<defs>
<font horiz-adv-x="581" ><font-face
    font-family="lmromandemi10-regular"
    units-per-em="1000"
    panose-1="0 0 7 0 0 0 0 0 0 0"
    ascent="1136"
    descent="-295"
    alphabetic="0" />
<missing-glyph horiz-adv-x="280" />
<glyph unicode=" " glyph-name="space" horiz-adv-x="333" />
<glyph unicode="!" glyph-name="exclam" horiz-adv-x="306" d="M232 634L230 621L178 248Q176 233 172 230T153 226Q137 226 134 230T128 252L76 616Q74 626 74 634Q74 663 97 684T153 705T208 684T232 634ZM231 110T231 78T208 23T153 0T98 23T75 78T98 133T153
156T208 133Z" />
<glyph unicode="&quot;" glyph-name="quotedbl" horiz-adv-x="440" d="M196 640L163 418H115L82 640Q78 663 95 680T139 697Q164 697 182 680T196 640ZM358 640L325 418H277L244 640Q240 663 257 680T301 697Q326 697 344 680T358 640Z" />
<glyph unicode="#" glyph-name="numbersign" horiz-adv-x="833" d="M776 139Q776 108 730 108H519L448 -164Q441 -194 417 -194Q403 -194 395 -185T386 -164Q386 -159 390 -144L456 108H300L229 -164Q222 -194 198 -194Q184 -194 176 -185T167 -164Q167 -159 171
-144L237 108H102Q56 108 56 139Q56 169 97 169H254L296 332H97Q56 332 56 362Q56 393 102 393H313L384 664Q391 694 415 694Q429 694 437 685T446 664Q446 659 442 644L376 393H532L603 664Q610 694 634 694Q648 694 656 685T665 664Q665 659 661 644L595 393H730Q776
393 776 362Q776 332 735 332H578L536 169H735Q776 169 776 139ZM515 332H359L317 169H473L515 332Z" />
<glyph unicode="$" glyph-name="dollar" horiz-adv-x="500" d="M443 210Q443 128 402 68T273 -5V-56H226V-5Q180 0 145 19T92 66T65 124T56 185Q56 214 71 230T98 249T119 252Q141 252 161 237T181 189Q181 176 177 164T156 139T114 127Q140 53 226 42V294Q136
312 96 372T56 498Q56 578 100 634T226 699V750H273V699Q358 691 400 641T443 522Q443 485 422 471T380 456Q357 456 338 472T318 519Q318 542 333 561T383 581Q355 643 273 652V428Q325 417 361 390T413 329T436 266T443 210ZM226 440V651Q174 642 155 610T136
546Q136 512 158 482T226 440ZM363 161Q363 202 340 236T273 282V43Q363 62 363 161Z" />
<glyph unicode="%" glyph-name="percent" horiz-adv-x="833" d="M693 719Q693 709 684 696L198 -37Q185 -56 170 -56Q157 -56 148 -47T139 -25Q139 -17 150 0L568 632Q521 611 463 611Q391 611 321 647Q333 605 333 549Q333 445 296 396T207 347Q150 347 103 395T56
549Q56 651 102 700T207 750Q245 750 279 721Q362 646 462 646Q571 646 635 733Q647 750 663 750Q674 750 683 742T693 719ZM776 145Q776 44 739 -6T650 -56Q593 -56 546 -8T499 146Q499 248 545 297T650 347Q701 347 738 298T776 145ZM286 549Q286 632 262 673T209
714Q197 714 188 708T174 687T166 659T161 623T160 587T159 548T159 510T161 474T165 438T174 411T188 390T209 383Q238 383 262 423T286 549ZM729 146Q729 229 705 270T652 311Q640 311 631 305T617 284T609 256T604 220T603 184T602 145T602 107T604 71T608 35T617
8T631 -13T652 -20Q681 -20 705 20T729 146Z" />
<glyph unicode="&amp;" glyph-name="ampersand" horiz-adv-x="778" d="M727 397Q684 397 662 394Q646 392 642 388T626 366Q610 341 603 326Q517 179 465 118Q533 36 585 36Q612 36 641 55T674 118H721Q720 61 680 25T579 -11Q483 -11 398 53Q316 -11 223 -11Q148
-11 95 31T42 137Q42 178 67 213Q72 221 122 271Q180 329 184 332Q143 432 143 528Q143 609 194 657T309 705Q359 705 383 664T408 574Q408 505 286 383Q326 285 436 153Q479 203 516 269Q518 272 536 302T568 358T583 385Q583 397 506 397V444Q546 441 628 441Q679
441 727 444V397ZM361 575Q361 583 360 594T354 624T339 656T311 669Q287 669 267 645T247 565Q247 493 272 421Q361 515 361 575ZM362 81Q260 174 200 297Q170 258 170 174Q170 129 175 100T191 58T210 41T233 36Q298 36 362 81Z" />
<glyph unicode="&apos;" glyph-name="quotesingle" horiz-adv-x="278" d="M196 640L163 418H115L82 640Q78 663 95 680T139 697Q164 697 182 680T196 640Z" />
<glyph unicode="(" glyph-name="parenleft" horiz-adv-x="389" d="M332 -235Q332 -249 314 -249Q295 -249 247 -196T168 -85Q92 64 92 250Q92 528 248 699Q299 750 314 750Q332 750 332 736Q332 730 325 723Q189 562 189 250Q189 -63 322 -218Q332 -229 332 -235Z" />
<glyph unicode=")" glyph-name="parenright" horiz-adv-x="389" d="M296 250Q296 -27 140 -198Q89 -249 74 -249Q56 -249 56 -235Q56 -229 69 -214Q199 -54 199 251Q199 563 66 719Q56 730 56 736Q56 750 74 750Q93 750 143 695T229 568Q296 430 296 250Z" />
<glyph unicode="*" glyph-name="asterisk" horiz-adv-x="500" d="M437 443Q437 422 423 408T392 394Q379 394 364 408L270 492L291 365L294 345Q294 328 281 317T249 306Q232 306 219 316T205 345Q206 350 207 358L229 492L135 407Q120 394 107 394Q91 394 77
408T62 443Q62 470 91 480L212 528L91 576Q62 586 62 613Q62 634 76 648T107 662Q120 662 135 648L229 564L208 691Q205 710 205 711Q205 728 218 739T250 750Q267 750 280 740T294 711Q293 706 292 698L270 564L364 649Q379 662 392 662Q408 662 422 648T437 613Q437
586 408 576L287 528L408 480Q437 470 437 443Z" />
<glyph unicode="+" glyph-name="plus" horiz-adv-x="778" d="M721 250Q721 220 678 220H419V-40Q419 -82 388 -82Q358 -82 358 -40V220H99Q56 220 56 251Q56 281 99 281H358V541Q358 583 389 583Q419 583 419 541V281H678Q721 281 721 250Z" />
<glyph unicode="," glyph-name="comma" horiz-adv-x="278" d="M228 31Q228 -30 202 -85T150 -167T114 -194Q108 -194 102 -188T95 -174Q95 -168 107 -157Q185 -88 191 18Q173 0 139 0Q103 0 82 23T61 78Q61 111 82 133T138 156Q180 156 204 120T228 31Z" />
<glyph unicode="-" glyph-name="hyphen" horiz-adv-x="333" d="M276 174H11V271H276V174Z" />
<glyph unicode="." glyph-name="period" horiz-adv-x="278" d="M217 110T217 78T194 23T139 0T84 23T61 78T84 133T139 156T194 133Z" />
<glyph unicode="/" glyph-name="slash" horiz-adv-x="500" d="M443 719Q443 713 438 700L119 -220Q110 -250 86 -250Q75 -250 66 -242T56 -219Q56 -213 61 -200L381 722Q391 750 413 750Q424 750 433 742T443 719Z" />
<glyph unicode="0" glyph-name="zero" horiz-adv-x="500" d="M460 319Q460 296 460 282T458 239T453 190T442 142T424 95T398 54T361 19T312 -2T249 -11Q206 -11 172 3T116 37T79 89T56 148T44 212T40 270T39 319Q39 350 39 369T44 427T55 492T78 552T115 606T172
640T250 655T327 641T383 606T420 552T443 492T455 426T459 368T460 319ZM332 331Q332 476 328 521Q324 575 300 597T249 619Q242 619 233 617T210 606T184 576T170 520Q167 477 167 330Q167 182 171 131Q173 98 182 75T206 42T230 29T250 25Q264 25 278 31T308
61T328 126Q332 174 332 331Z" />
<glyph unicode="1" glyph-name="one" horiz-adv-x="500" d="M430 0Q392 3 255 3Q121 3 83 0V47H195V561Q142 544 69 544V591Q209 591 275 655Q302 655 308 651T314 623V47H430V0Z" />
<glyph unicode="2" glyph-name="two" horiz-adv-x="500" d="M449 222L418 0H50V18Q50 39 60 51L218 249Q311 365 311 466Q311 486 308 506T295 552T266 592T215 608Q164 608 133 573Q160 568 177 550T194 501Q194 466 172 448T122 429Q97 429 74 446T50 503Q50
566 104 610T237 655Q329 655 389 602T449 466Q449 389 379 318Q369 309 333 277T287 236Q274 224 228 181T169 125H289Q375 125 380 133Q393 150 402 222H449Z" />
<glyph unicode="3" glyph-name="three" horiz-adv-x="500" d="M457 180Q457 98 398 44T234 -11Q151 -11 97 33T42 139Q42 176 64 196T119 217T173 196T195 141Q195 109 177 90T132 65Q173 32 229 32Q250 32 265 43T288 68T299 106T303 144T304 181Q304 208 303
225T298 265T285 299T260 321T221 330H195Q184 330 180 330T171 335T167 348Q167 360 173 363T199 368Q216 369 225 370T245 376T263 391T278 417Q293 458 293 520Q293 538 292 550T285 579T266 606T230 616Q179 616 144 579Q180 575 194 554T208 510Q208 481 189
461T138 441Q109 441 89 459T69 512Q69 568 115 611T236 655Q325 655 377 617T430 516Q430 455 391 413T304 351Q387 332 422 284T457 180Z" />
<glyph unicode="4" glyph-name="four" horiz-adv-x="500" d="M471 0Q432 3 329 3Q208 3 173 0V47H270V156H28V203L335 641Q342 652 347 654T366 656Q386 656 390 650T395 624V203H471V156H395V47H471V0ZM281 203V493L77 203H281Z" />
<glyph unicode="5" glyph-name="five" horiz-adv-x="500" d="M449 202Q449 104 385 47T220 -11Q143 -11 97 41T50 159Q50 187 64 204T92 225T117 229Q141 229 162 213T184 161Q184 133 167 114T115 94Q132 64 160 48T216 32Q242 32 264 46T296 87Q307 117 307
208Q307 238 307 253T305 291T299 325T289 350T271 368T244 373Q173 373 133 315Q126 305 113 305Q97 305 94 312T90 338V626Q90 636 90 641T94 650T105 655L117 651Q182 623 250 623T383 650Q391 655 396 655Q410 655 410 637Q410 626 395 605T354 559T285 517T195
499Q163 499 143 504V378Q188 409 248 409Q338 409 393 352T449 202Z" />
<glyph unicode="6" glyph-name="six" horiz-adv-x="500" d="M457 309T457 205T399 45T253 -11Q210 -11 175 4T119 42T82 98T59 159T47 223T43 276T42 316Q42 396 61 459T108 557T173 616T241 647T303 655Q369 655 400 617T432 531Q432 500 415 483T369 466T324
484T307 528Q307 556 324 572T365 591Q344 616 305 616Q292 616 278 612T244 596T207 555T185 483Q178 435 178 369Q205 418 263 418Q344 418 400 364ZM321 209Q321 298 318 324Q315 349 299 365T256 382Q229 382 212 365T189 314T181 259T179 204Q179 109 187
88Q207 32 251 32Q279 32 296 48T318 92Q321 122 321 209Z" />
<glyph unicode="7" glyph-name="seven" horiz-adv-x="500" d="M485 617Q485 609 476 598L340 413Q285 339 285 113V60Q285 30 272 13T246 -8T222 -11Q215 -11 209 -10T189 -3T168 19T160 60Q160 115 173 173T203 272T242 352T273 405T288 427L357 519H223Q131
519 126 511Q114 496 103 422H56L91 676H138Q140 667 142 663T155 655T187 648Q222 644 267 644H485V617Z" />
<glyph unicode="8" glyph-name="eight" horiz-adv-x="500" d="M457 189Q457 103 402 46T248 -11Q158 -11 100 34T42 162Q42 223 72 260T151 327Q69 381 69 478Q69 553 116 604T251 655Q330 655 380 616T430 507Q430 429 344 371Q364 358 377 348T412 315T445 260T457
189ZM355 507Q355 553 328 584T248 616Q204 616 174 596T144 538T185 474L303 398Q355 439 355 507ZM371 133Q371 157 360 177T336 206T299 232Q281 243 253 260T193 299Q128 245 128 163Q128 105 160 69T251 32Q303 32 337 58T371 133Z" />
<glyph unicode="9" glyph-name="nine" horiz-adv-x="500" d="M457 330Q457 249 440 186T395 87T333 28T268 -3T208 -11Q140 -11 104 25T67 113Q67 144 84 161T130 178T175 160T192 116Q192 91 178 75T140 54Q164 32 206 32Q261 32 293 85Q313 121 318 198Q319
210 319 223T320 251T321 276Q295 227 236 227Q154 227 98 282T42 440Q42 538 101 596Q160 655 251 655Q293 655 327 640T382 603T418 547T441 486T452 423T456 370T457 330ZM321 446Q321 536 314 557Q295 616 253 616Q222 616 205 599T184 562Q178 535 178 435Q178
346 181 320Q184 296 200 280T243 263Q289 263 305 312T321 446Z" />
<glyph unicode=":" glyph-name="colon" horiz-adv-x="278" d="M217 398T217 366T194 311T139 288T84 311T61 366T84 421T139 444T194 421ZM217 110T217 78T194 23T139 0T84 23T61 78T84 133T139 156T194 133Z" />
<glyph unicode=";" glyph-name="semicolon" horiz-adv-x="278" d="M217 398T217 366T194 311T139 288T84 311T61 366T84 421T139 444T194 421ZM220 31Q220 -6 211 -42T187 -105T158 -152T131 -183T114 -194Q108 -194 102 -188T95 -174T110 -153Q174 -86 183 12Q163
0 139 0Q103 0 82 23T61 78Q61 111 82 133T138 156Q177 156 198 121T220 31Z" />
<glyph unicode="&lt;" glyph-name="less" horiz-adv-x="894" d="M797 -56Q797 -67 789 -76T766 -86Q758 -86 744 -79L121 219Q96 231 96 251T121 282L747 581Q758 587 766 587Q780 587 788 578T797 557Q797 538 772 525L197 250L772 -24Q797 -36 797 -56Z" />
<glyph unicode="=" glyph-name="equal" horiz-adv-x="778" d="M721 362Q721 332 680 332H97Q56 332 56 362Q56 393 102 393H675Q721 393 721 362ZM721 139Q721 108 675 108H102Q56 108 56 139Q56 169 97 169H680Q721 169 721 139Z" />
<glyph unicode="&gt;" glyph-name="greater" horiz-adv-x="894" d="M797 251Q797 230 772 219L146 -80Q136 -86 127 -86Q113 -86 105 -77T96 -56Q96 -36 121 -24L696 251L121 525Q96 538 96 557Q96 569 105 578T126 587Q135 587 149 580L772 282Q797 271 797 251Z" />
<glyph unicode="?" glyph-name="question" horiz-adv-x="472" d="M415 571Q415 509 363 474Q246 394 246 285V256Q246 236 243 231T222 226Q206 226 203 230T199 253V294Q199 396 265 494Q278 512 282 527T287 579Q287 605 286 616T279 641T260 659T222 664Q168
664 133 633Q154 627 167 612T181 572Q181 543 163 526T118 509Q95 509 76 524T56 573Q56 624 101 662T228 700Q242 700 253 699T290 695T334 684T373 662T404 626T415 571ZM300 110T300 78T277 23T222 0T167 23T144 78T167 133T222 156T277 133Z" />
<glyph unicode="@" glyph-name="at" horiz-adv-x="778" d="M721 79L718 69Q650 32 546 11Q466 -6 392 -6Q237 -6 147 91T56 347Q56 511 149 605T388 700Q531 700 626 608T721 343Q721 237 694 183T605 128Q527 128 491 168Q446 128 387 128Q304 128 247 185T189
347T246 509T387 566Q480 566 524 482H558Q580 482 584 478T588 453V221Q588 164 614 164Q634 164 647 178T665 219T672 270T674 332Q674 487 600 573Q522 664 388 664Q265 664 184 581T103 347Q103 201 181 116T391 30Q515 30 638 86Q651 93 669 93H693Q721 93
721 79ZM477 478Q442 530 390 530Q353 530 328 483T303 347T328 211T390 164Q437 164 474 211V453Q474 471 477 478Z" />
<glyph unicode="A" glyph-name="A" horiz-adv-x="756" d="M720 0Q684 3 570 3Q443 3 407 0V47H490L443 182H224L185 71L181 59Q181 47 259 47V0L141 3L35 0V47Q73 47 93 49Q114 51 119 54T128 70L340 672Q346 690 354 694T378 698Q389 698 394 697T405 690T415
672L635 47H720V0ZM426 229L333 493L240 229H426Z" />
<glyph unicode="B" glyph-name="B" horiz-adv-x="711" d="M654 186Q654 108 598 54T438 0H34V47H128V639H34V686H412Q515 686 571 636T627 514Q627 457 588 415T479 359Q564 348 609 300T654 186ZM485 514Q485 639 399 639H259V375H376Q433 375 459 414T485 514ZM507
188Q507 252 486 292Q463 339 411 339H259V47H401Q458 47 485 92Q507 129 507 188Z" />
<glyph unicode="C" glyph-name="C" horiz-adv-x="722" d="M665 227Q665 139 594 64T408 -11Q253 -11 155 84T56 343Q56 508 155 602T407 697Q499 697 570 635L628 688Q638 697 647 697Q659 697 662 692T665 669V454Q665 434 661 430T638 426Q628 426 624 426T617
430T612 442Q597 545 545 597T426 650Q315 650 256 568Q234 538 223 493T211 418T209 343Q209 267 217 218T250 128Q277 84 325 60T428 36Q501 36 559 87T618 231Q619 243 624 245T641 248Q655 248 660 245T665 227Z" />
<glyph unicode="D" glyph-name="D" horiz-adv-x="767" d="M710 337Q710 177 624 89T406 0H34V47H128V639H34V686H406Q536 686 623 595T710 337ZM563 337Q563 492 531 549Q482 639 364 639H264V47H365Q482 47 531 132Q563 191 563 337Z" />
<glyph unicode="E" glyph-name="E" horiz-adv-x="656" d="M627 274L581 0H34V47H128V633H34V680H568L599 439H552Q546 481 542 503T526 554T496 598T446 622T369 633H270V376H292Q354 376 370 402T387 493H434V212H387Q387 245 385 262T374 297T345 322T292 329H270V47H373Q414
47 444 54T496 77T530 111T554 158T569 211T580 274H627Z" />
<glyph unicode="F" glyph-name="F" horiz-adv-x="628" d="M585 439H538Q534 469 532 485T523 525T510 562T490 591T459 614T417 627T360 633H270V364H287Q349 364 365 390T381 481H428V200H381Q381 265 365 291T287 317H270V47H388V0Q347 3 203 3Q69 3 34 0V47H128V633H34V680H554L585
439Z" />
<glyph unicode="G" glyph-name="G" horiz-adv-x="786" d="M735 229H666V28Q666 0 652 0Q645 0 610 17T555 52Q539 29 502 9T408 -11Q255 -11 156 83T56 343Q56 507 155 602T408 697Q501 697 571 635L629 688Q639 697 648 697Q660 697 663 692T666 669V454Q666
434 662 430T639 426Q629 426 625 426T618 430T613 442Q598 546 545 598T427 650Q309 650 249 557Q209 495 209 343Q209 194 250 128Q282 78 332 57T429 36Q448 36 467 41T505 69T524 128V229H399V276Q443 273 586 273Q698 273 735 276V229Z" />
<glyph unicode="H" glyph-name="H" horiz-adv-x="783" d="M748 0Q713 3 583 3T418 0V47H512V333H270V47H364V0Q329 3 199 3T34 0V47H128V639H34V686Q69 683 199 683T364 686V639H270V380H512V639H418V686Q453 683 583 683T748 686V639H654V47H748V0Z" />
<glyph unicode="I" glyph-name="I" horiz-adv-x="397" d="M368 0Q332 3 198 3T28 0V47H127V639H28V686Q64 683 198 683T368 686V639H269V47H368V0Z" />
<glyph unicode="J" glyph-name="J" horiz-adv-x="517" d="M459 639H388V149Q388 74 329 32T176 -11Q99 -11 50 24T0 114Q0 151 23 171T77 191Q106 191 129 171T153 114Q153 92 142 75T122 51T103 41Q134 25 171 25Q206 25 229 54T252 147V639H129V686Q170 683
312 683Q422 683 459 686V639Z" />
<glyph unicode="K" glyph-name="K" horiz-adv-x="783" d="M741 0Q698 3 607 3Q483 3 448 0V47Q512 47 512 58Q512 61 506 69L338 333L270 266V47H364V0Q329 3 199 3T34 0V47H128V639H34V686Q69 683 199 683T364 686V639H270V332L560 618Q562 620 569 629Q544 639
505 639V686Q542 683 635 683Q682 683 727 686V639Q670 639 655 634T617 608L429 423L657 66Q662 58 666 55T682 49T718 47H741V0Z" />
<glyph unicode="L" glyph-name="L" horiz-adv-x="600" d="M557 274L526 0H34V47H128V639H34V686Q69 683 203 683Q347 683 388 686V639H270V47H336Q372 47 400 58T446 90T476 133T495 184T505 231T510 274H557Z" />
<glyph unicode="M" glyph-name="M" horiz-adv-x="950" d="M915 0Q880 3 758 3Q637 3 602 0V47H696V629H695L465 25Q461 16 460 13T452 5T436 0Q426 0 420 4T412 12T406 25L182 613H181V76Q181 59 184 56T206 50Q227 47 255 47H275V0L154 3L34 0V47H54Q82 47 104
50Q122 52 125 55T128 76V639H34V686H243Q263 686 270 682T284 660L475 158L666 661Q672 678 680 682T707 686H915V639H821V47H915V0Z" />
<glyph unicode="N" glyph-name="N" horiz-adv-x="783" d="M748 639H728Q700 639 678 636Q660 634 657 631T654 610V32Q654 12 650 6T627 0Q609 0 600 13L181 589V76Q181 59 184 56T206 50Q227 47 255 47H275V0L154 3L34 0V47H54Q82 47 104 50Q122 52 125 55T128
76V639H34V686H242Q258 686 263 684T277 671L601 225V610Q601 627 598 630T576 636Q555 639 527 639H507V686L628 683L748 686V639Z" />
<glyph unicode="O" glyph-name="O" horiz-adv-x="750" d="M693 339Q693 175 604 82T374 -11Q237 -11 147 81T56 339Q56 507 145 602T375 697Q512 697 602 603T693 339ZM540 353Q540 488 513 553Q492 603 455 630T374 657Q335 657 298 633T237 557Q209 492 209
353Q209 202 241 130Q261 85 296 58T375 31Q417 31 454 59T510 134Q530 183 535 231T540 353Z" />
<glyph unicode="P" glyph-name="P" horiz-adv-x="683" d="M626 491Q626 404 562 353T402 302H270V47H364V0Q329 3 199 3T34 0V47H128V639H34V686H393Q501 686 563 631T626 491ZM473 491Q473 525 472 541T465 580T447 613T411 631T352 639H264V343H352Q387 343
411 351T447 369T465 403T472 442T473 491Z" />
<glyph unicode="Q" glyph-name="Q" horiz-adv-x="750" d="M699 -10Q699 -30 695 -55T680 -114T643 -171T578 -194Q550 -194 530 -183T498 -158T478 -113T465 -63T456 -2Q429 -11 375 -11Q235 -11 146 81T56 339Q56 507 145 602T375 697Q512 697 602 603T693 339Q693
297 686 257T661 170T606 83T514 18Q529 -9 545 -23T569 -39T592 -41Q657 -41 663 -3Q666 18 681 18Q699 18 699 -10ZM546 340Q546 475 520 542Q497 600 458 628T374 657Q334 657 293 630T226 534Q203 469 203 340Q203 292 205 260T215 187T241 114T288 60L287
73Q287 107 312 131T375 155Q438 155 481 78Q511 109 526 163T544 251T546 340ZM446 49Q430 119 376 119Q352 119 338 105T323 73Q323 65 325 57T340 39T375 29Q414 29 446 49Z" />
<glyph unicode="R" glyph-name="R" horiz-adv-x="760" d="M756 94Q756 86 753 73T740 38T708 3T650 -11Q484 -11 451 80Q444 102 444 169Q444 222 441 243T424 287Q400 325 350 325H264V47H358V0Q323 3 196 3T34 0V47H128V639H34V686H367Q491 686 562 633T634
500Q634 446 594 402T482 339Q570 301 585 219Q586 217 595 145Q599 114 602 99T611 63T629 34T657 25Q678 25 692 43T709 94Q710 107 714 112T732 117Q756 117 756 94ZM481 500Q481 535 479 553T465 594T424 628T346 639H264V361H344Q384 361 411 369T451 389T472
422T480 458T481 500Z" />
<glyph unicode="S" glyph-name="S" horiz-adv-x="556" d="M499 203Q499 110 448 50T302 -11Q202 -11 135 40L107 12Q89 -5 85 -8T74 -11Q62 -11 59 -6T56 17V199Q56 218 59 223T80 228Q88 228 92 227T99 223T102 217T103 205Q105 156 126 121T178 68T240 43T301
36Q356 36 379 71T402 153Q402 236 336 266Q317 272 268 283Q192 302 162 315T104 361Q56 420 56 497Q56 584 108 640T251 697Q335 697 394 647L421 674Q439 691 443 694T454 697Q466 697 469 692T472 669V486Q472 468 469 463T448 458Q436 458 431 461T424 475Q400
654 252 654Q201 654 177 623T153 549Q153 514 171 487T216 449Q223 447 289 430Q341 417 363 410T410 387T455 343Q499 283 499 203Z" />
<glyph unicode="T" glyph-name="T" horiz-adv-x="694" d="M657 434H610Q607 477 604 498T592 549T569 593T529 617T466 628H418V47H552V0Q504 3 347 3T142 0V47H276V628H227Q200 628 179 623T144 610T120 586T103 557T93 520T88 480T83 434H36L57 675H636L657 434Z" />
<glyph unicode="U" glyph-name="U" horiz-adv-x="769" d="M734 639H714Q686 639 664 636Q646 634 643 631T640 610V227Q640 124 578 57T404 -11Q277 -11 203 56T128 229V639H34V686Q69 683 199 683T364 686V639H270V210Q270 36 408 36Q481 36 534 81T587 230V610Q587
627 584 630T562 636Q541 639 513 639H493V686L614 683L734 686V639Z" />
<glyph unicode="V" glyph-name="V" horiz-adv-x="756" d="M733 639Q694 639 676 637T653 630T644 616L415 17Q411 7 408 3T398 -5T377 -8Q358 -8 352 -3T340 17L103 639H22V686Q58 683 169 683Q295 683 331 686V639H249L422 184L591 629Q566 639 514 639V686L631
683L733 686V639Z" />
<glyph unicode="W" glyph-name="W" horiz-adv-x="1033" d="M1011 639Q959 639 946 635T928 616L726 17Q722 4 715 -2T693 -8Q676 -8 670 -3T659 18L516 441L373 17Q364 -8 339 -8Q323 -8 317 -3T306 17L96 639H21V686Q60 683 163 683Q288 683 324 686V639H240L387
205L491 515L449 639H374V686Q413 683 516 683Q641 683 677 686V639H593L740 205L882 628Q854 639 793 639V686Q833 683 915 683Q962 683 1011 686V639Z" />
<glyph unicode="X" glyph-name="X" horiz-adv-x="756" d="M727 0Q690 3 579 3Q451 3 415 0V47H488L347 279L205 58Q235 47 289 47V0Q252 3 151 3L29 0V47H53Q116 47 141 57L316 329L127 639H42V686Q78 683 190 683Q318 683 354 686V639H281L395 451L501 616L508
628Q477 639 424 639V686Q460 683 562 683L684 686V639H660Q630 639 606 636Q584 634 579 631T565 617L426 401L642 47H727V0Z" />
<glyph unicode="Y" glyph-name="Y" horiz-adv-x="756" d="M739 639Q698 639 678 637T652 631T642 618L445 274V47H540V0Q505 3 377 3Q250 3 215 0V47H309V274L101 639H16V686Q52 683 166 683Q297 683 333 686V639H258L425 346L587 629Q563 639 518 639V686L637
683L739 686V639Z" />
<glyph unicode="Z" glyph-name="Z" horiz-adv-x="611" d="M560 284L542 0H88Q75 0 70 1T60 7T56 26Q56 40 63 52L397 639H303Q262 639 230 630T179 603T147 568T128 524T120 483T116 445H69L81 686H522Q535 686 540 685T550 679T554 661T547 637L214 51H314Q344
51 369 56T413 68T447 89T471 114T488 146T500 179T507 215T511 249T513 284H560Z" />
<glyph unicode="[" glyph-name="bracketleft" horiz-adv-x="280" d="M257 -250H107V750H257V689H168V-189H257V-250Z" />
<glyph unicode="\" glyph-name="backslash" horiz-adv-x="575" d="M510 -219Q510 -233 501 -241T480 -250Q470 -250 463 -245T454 -235T447 -220L70 699Q64 715 64 719Q64 733 73 741T94 750Q104 750 110 746T119 736T127 720L504 -199Q510 -215 510 -219Z" />
<glyph unicode="]" glyph-name="bracketright" horiz-adv-x="280" d="M172 -250H22V-189H111V689H22V750H172V-250Z" />
<glyph unicode="^" glyph-name="asciicircum" horiz-adv-x="556" d="M561 584L549 562L277 685L6 562L-5 584L278 744L561 584Z" />
<glyph unicode="_" glyph-name="underscore" horiz-adv-x="756" d="M756 -149H0V-101H756V-149Z" />
<glyph unicode="`" glyph-name="grave" horiz-adv-x="500" d="M315 544L282 511L153 595Q121 616 121 644Q121 668 140 687T183 706Q212 706 231 676L315 544Z" />
<glyph unicode="a" glyph-name="a" horiz-adv-x="486" d="M485 24Q485 13 481 8T471 1T453 0H411Q379 0 359 8T331 30T322 53T320 74Q283 -6 197 -6Q132 -6 80 23T28 109Q28 183 107 223T303 265V301Q303 354 282 385T217 417Q190 417 158 411Q181 393 181 361Q181
331 162 315T118 298Q95 298 76 314T56 361Q56 386 70 405T103 432T148 446T189 452T220 453Q312 453 364 412T417 300V84Q417 71 418 65T431 54T464 47Q471 46 474 45T481 39T485 24ZM303 138V233Q289 232 276 230T237 220T193 200T160 164T145 109T162 54T209
30Q240 30 271 55T303 138Z" />
<glyph unicode="b" glyph-name="b" horiz-adv-x="556" d="M522 222Q522 115 460 55T302 -6Q230 -6 181 47L133 0H85V600Q85 628 75 633T16 639V686L193 694V408Q246 450 314 450Q402 450 462 391T522 222ZM394 223Q394 319 382 352Q373 381 352 397T304 414Q243
414 199 357V89Q238 30 294 30Q321 30 344 46T379 88Q394 126 394 223Z" />
<glyph unicode="c" glyph-name="c" horiz-adv-x="444" d="M415 117Q415 112 411 100T395 69T366 34T317 6T248 -6Q156 -6 95 54T33 222Q33 327 92 390T251 453Q316 453 360 430T404 361Q404 331 385 315T341 298Q318 298 299 314T279 361Q279 390 299 408Q272
413 254 413Q232 413 215 404T189 378T173 344T165 303T162 263T161 227Q161 136 180 95Q208 34 265 34Q339 34 368 118Q371 127 375 129T391 131Q415 131 415 117Z" />
<glyph unicode="d" glyph-name="d" horiz-adv-x="556" d="M539 0L356 -6V35Q306 -6 242 -6Q153 -6 93 53T33 222Q33 329 95 389T252 450Q313 450 362 412V600Q362 628 352 633T293 639V686L470 694V86Q470 58 480 53T539 47V0ZM356 94V361Q318 414 262 414Q231
414 208 397T173 349Q161 314 161 221Q161 127 172 93Q194 30 251 30Q315 30 356 94Z" />
<glyph unicode="e" glyph-name="e" horiz-adv-x="467" d="M438 117Q438 107 429 89T400 48T343 10T259 -6Q158 -6 93 56T28 225Q28 329 88 391T247 453Q302 453 341 434T401 383T429 318T438 247Q438 227 432 223T406 218H156Q156 197 156 184T160 145T170 104T189
70T221 43T268 34Q303 34 338 54T390 116Q394 128 398 131T414 135Q438 135 438 117ZM343 251Q343 270 341 288T332 341T303 396T248 417Q159 417 156 251H343Z" />
<glyph unicode="f" glyph-name="f" horiz-adv-x="306" d="M398 613Q398 584 380 568T336 551Q313 551 294 567T275 613Q275 646 299 663Q295 664 288 664T274 663T252 656T226 639T207 603T198 546V444H297V397H204V47H291V0Q255 3 153 3L27 0V47H96V397H38V444H96V545Q96
624 154 662T291 700Q342 700 370 674T398 613Z" />
<glyph unicode="g" glyph-name="g" horiz-adv-x="500" d="M485 397Q485 379 473 367T442 354T411 366T399 397Q399 406 402 415Q379 408 365 399Q402 358 402 302Q402 240 356 197T222 154Q160 154 114 179Q105 167 105 144Q105 118 120 102T157 83H215Q254 83
275 82T332 78T388 64T431 38T463 -6T473 -71Q473 -127 417 -164T249 -201Q130 -201 78 -162T26 -75Q26 -16 97 11Q56 45 56 104Q56 152 90 196Q42 234 42 302Q42 365 89 407T222 450Q294 450 340 418Q381 455 429 455Q457 455 471 437T485 397ZM291 302Q291 328
290 342T283 375T262 404T222 414Q202 414 189 407T168 390T158 363T154 334T153 302Q153 276 154 262T161 229T182 200T222 190Q242 190 255 197T276 214T286 241T290 270T291 302ZM387 -75Q387 -13 267 -13H173Q112 -13 112 -73Q112 -112 146 -138T250 -165Q321
-165 354 -138T387 -75Z" />
<glyph unicode="h" glyph-name="h" horiz-adv-x="556" d="M553 0L428 3L305 0V47H370V321Q370 362 364 384T351 410T334 414Q289 414 248 373T207 256V47H276V0L150 3L24 0V47H93V600Q93 628 83 633T24 639V686L201 694V359H202Q252 450 349 450Q426 450 455 412T484
309V47H553V0Z" />
<glyph unicode="i" glyph-name="i" horiz-adv-x="278" d="M265 0L148 3L26 0V47H95V356Q95 384 85 389T29 395V442L203 450V47H265V0ZM217 609Q217 578 195 555T138 531Q106 531 83 554T60 609Q60 640 82 663T139 687Q171 687 194 664T217 609Z" />
<glyph unicode="j" glyph-name="j" horiz-adv-x="306" d="M242 -42Q242 -115 191 -157T71 -200Q15 -200 -23 -176T-62 -109Q-62 -82 -45 -64T1 -46Q28 -46 45 -64T63 -108Q63 -142 37 -159Q52 -164 69 -164Q89 -164 103 -152T123 -119T131 -81T134 -44V355Q134
368 133 374T127 385T112 393Q97 395 58 395V442L242 450V-42ZM242 609Q242 578 220 555T163 531Q131 531 108 554T85 609Q85 640 107 663T164 687Q196 687 219 664T242 609Z" />
<glyph unicode="k" glyph-name="k" horiz-adv-x="528" d="M511 0Q445 3 410 3L290 0V47Q327 47 327 57Q327 61 284 125T224 212L188 179V47H257V0L136 3L16 0V47H85V600Q85 628 75 633T16 639V686L193 694V248L332 376Q340 380 340 386Q340 397 297 397V444Q336
441 411 441Q465 441 488 444V397Q457 397 440 395T417 389T403 378L296 279L441 66Q448 55 452 52T467 48T511 47V0Z" />
<glyph unicode="l" glyph-name="l" horiz-adv-x="278" d="M272 0L149 3L26 0V47H95V600Q95 628 85 633T26 639V686L203 694V47H272V0Z" />
<glyph unicode="m" glyph-name="m" horiz-adv-x="833" d="M830 0L705 3L582 0V47H647V321Q647 362 641 384T628 410T611 414Q566 414 525 373T484 256V47H553V0L428 3L305 0V47H370V321Q370 362 364 384T351 410T334 414Q289 414 248 373T207 256V47H276V0L150
3L24 0V47H93V356Q93 384 83 389T24 395V442L196 450V349H197Q246 450 349 450Q460 450 480 359Q527 450 626 450Q703 450 732 412T761 309V47H830V0Z" />
<glyph unicode="n" glyph-name="n" horiz-adv-x="556" d="M553 0L428 3L305 0V47H370V321Q370 362 364 384T351 410T334 414Q289 414 248 373T207 256V47H276V0L150 3L24 0V47H93V356Q93 384 83 389T24 395V442L196 450V349H197Q246 450 349 450Q426 450 455 412T484
309V47H553V0Z" />
<glyph unicode="o" glyph-name="o" horiz-adv-x="500" d="M471 219Q471 115 410 55T249 -6Q151 -6 90 54T28 219Q28 326 89 389T249 453Q349 453 410 389T471 219ZM343 229Q343 323 334 356Q327 381 304 399T249 417Q220 417 196 401T165 356Q156 324 156 229Q156
133 164 100Q172 69 196 52T250 34Q278 34 302 51T333 96Q343 130 343 229Z" />
<glyph unicode="p" glyph-name="p" horiz-adv-x="556" d="M522 223Q522 115 459 55T302 -6Q244 -6 199 30V-147H268V-194L142 -191L16 -194V-147H85V362Q85 374 85 379T80 388T66 393Q55 395 16 395V442L193 450V407Q248 450 317 450Q405 450 463 390T522 223ZM394
223Q394 312 369 361T303 410Q244 410 199 354V89Q236 30 293 30Q335 30 364 78T394 223Z" />
<glyph unicode="q" glyph-name="q" horiz-adv-x="528" d="M539 -194L413 -191L287 -194V-147H356V38Q306 -6 242 -6Q154 -6 94 53T33 222Q33 330 96 390T250 450Q330 450 377 380L429 450H470V-147H539V-194ZM362 132V290Q362 330 334 370T262 410Q221 410 191
364T161 221Q161 131 186 81T252 30Q295 30 329 64Q362 99 362 132Z" />
<glyph unicode="r" glyph-name="r" horiz-adv-x="428" d="M400 368Q400 340 382 324T339 307T297 323T278 368Q278 381 283 392T292 409L297 414Q265 414 244 396T212 348T197 288T193 226V47H280V0Q244 3 142 3L16 0V47H85V356Q85 384 75 389T16 395V442L182
450V359H183Q213 450 293 450Q334 450 367 429T400 368Z" />
<glyph unicode="s" glyph-name="s" horiz-adv-x="394" d="M360 139Q360 76 323 35T199 -6Q142 -6 102 22Q86 12 78 6Q60 -6 51 -6Q39 -6 36 0T33 22V131Q33 150 36 155T57 160Q71 160 74 157T81 143Q95 88 122 59T199 30Q289 30 289 104Q289 133 270 151T234 175T188
186T144 196T108 210T72 235Q33 274 33 322Q33 360 47 387T86 427T137 447T193 453Q245 453 276 435Q309 453 317 453Q329 453 332 448T335 425V345Q335 326 332 322T311 317Q297 317 293 320T288 336Q287 350 285 359T274 385T245 411T193 421Q104 421 104 359Q104
342 112 330T138 310T168 299T205 290Q232 285 246 282T280 268T315 242Q360 200 360 139Z" />
<glyph unicode="t" glyph-name="t" horiz-adv-x="390" d="M333 122Q333 71 307 33T228 -6Q82 -6 82 123V397H19V433Q87 436 117 496T149 635H196V444H317V397H196V118Q196 34 241 34Q262 34 274 58T286 123V177H333V122Z" />
<glyph unicode="u" glyph-name="u" horiz-adv-x="556" d="M553 0L376 -6V62H375Q337 -6 257 -6Q178 -6 136 22T93 122V356Q93 384 83 389T24 395V442L207 450V105Q207 60 217 45T271 30Q317 30 343 68T370 163V356Q370 384 360 389T301 395V442L484 450V86Q484
58 494 53T553 47V0Z" />
<glyph unicode="v" glyph-name="v" horiz-adv-x="528" d="M505 397Q462 397 451 393T435 375L299 23Q295 13 293 9T283 0T264 -4Q250 -4 242 1T227 24L84 397H22V444L134 441L257 444V397H200L296 147L383 373L387 385Q387 397 336 397V444Q378 441 426 441Q467
441 505 444V397Z" />
<glyph unicode="w" glyph-name="w" horiz-adv-x="722" d="M700 397Q660 397 650 393T634 374L511 22Q502 -4 477 -4Q463 -4 456 0T442 22L360 256L278 21Q275 12 273 8T263 0T244 -4Q228 -4 222 2T210 23L79 397H21V444L127 441L236 444V397H194L277 160L331 315L335
327L311 397H265V444Q310 441 355 441L467 444V397H408L500 135L584 372L588 387Q566 397 527 397V444L623 441Q664 441 700 444V397Z" />
<glyph unicode="x" glyph-name="x" horiz-adv-x="528" d="M511 0L404 3L285 0V47H331L246 170L165 58Q181 48 211 47V0L109 3Q63 3 18 0V47Q48 47 61 47T90 52T112 66L218 211L90 397H22V444Q76 441 129 441L247 444V397H201L276 289L346 386Q328 397 299 397V444L402
441Q445 441 493 444V397Q455 397 435 395T410 389T398 377L304 249L443 47H511V0Z" />
<glyph unicode="y" glyph-name="y" horiz-adv-x="528" d="M505 397Q474 397 460 394T441 387T433 373L256 -84Q239 -128 201 -164T112 -200Q72 -200 46 -173T19 -108Q19 -80 36 -65T76 -50Q101 -50 117 -66T134 -107Q134 -147 97 -162Q105 -164 113 -164Q161 -164
194 -108Q207 -85 238 0L84 397H22V444L134 441L257 444V397H201L297 150L382 372L387 385Q387 390 374 393T348 396L335 397V444Q374 441 426 441Q467 441 505 444V397Z" />
<glyph unicode="z" glyph-name="z" horiz-adv-x="444" d="M401 202L383 0H60Q48 0 43 1T33 7T28 22Q28 33 36 44L269 408H216Q141 408 118 377T89 269H42L54 444H367Q379 444 384 444T394 438T399 423Q399 414 391 402L159 40H214Q250 40 275 48T314 68T336 104T348
147T354 202H401Z" />
<glyph unicode="{" glyph-name="braceleft" horiz-adv-x="575" d="M496 -232Q496 -244 490 -247T465 -250Q444 -250 424 -249T375 -243T323 -229T278 -205T244 -166T232 -111V99Q232 138 230 146Q222 178 189 203T95 232Q78 233 78 250Q78 258 81 262T87 266T100
268Q162 271 199 305Q222 325 227 345T232 417V623Q233 681 296 715T465 750Q478 750 483 750T492 745T496 732Q496 724 493 720T487 716T474 714Q421 711 382 686Q343 657 343 606V396Q343 377 342 366T335 335T318 302T282 274T224 250Q284 234 313 202T343 134V-103Q343
-128 346 -138Q369 -207 479 -214Q496 -215 496 -232Z" />
<glyph unicode="|" glyph-name="bar" horiz-adv-x="319" d="M190 -206Q190 -250 159 -250Q129 -250 129 -206V706Q129 750 160 750Q190 750 190 706V-206Z" />
<glyph unicode="}" glyph-name="braceright" horiz-adv-x="575" d="M496 250Q496 242 493 238T487 234T474 232Q409 228 377 196Q353 174 348 155T343 83V-123Q342 -179 281 -214T109 -250Q96 -250 91 -250T82 -245T78 -232Q78 -224 81 -220T87 -216T100 -214Q157
-211 195 -184Q212 -171 221 -156T231 -131T232 -106V104Q232 123 233 134T240 165T257 198T293 226T351 250Q290 267 262 298T232 366V603Q232 628 229 638Q207 708 95 714Q78 715 78 732Q78 744 84 747T109 750Q147 750 181 745T255 727T319 684T343 611V401Q343
360 346 352Q370 273 479 268Q496 267 496 250Z" />
<glyph unicode="~" glyph-name="asciitilde" horiz-adv-x="556" d="M555 290L501 246Q481 229 444 211Q404 193 371 193Q329 193 271 227Q206 264 167 264Q99 264 14 193L0 210L54 254Q74 271 111 289Q151 307 184 307Q226 307 284 273Q349 236 388 236Q456 236
541 307L555 290Z" />
<glyph unicode="&#xa0;" glyph-name="uni00A0" horiz-adv-x="500" />
<glyph unicode="&#xa1;" glyph-name="exclamdown" horiz-adv-x="306" d="M231 454T231 422T208 367T153 344T98 367T75 422T98 477T153 500T208 477ZM232 -134Q232 -163 209 -184T153 -205T98 -184T74 -134L76 -121L128 249Q130 266 134 270T153 274Q167 274 171
270T178 252L230 -116Q232 -126 232 -134Z" />
<glyph unicode="&#xa2;" glyph-name="cent" horiz-adv-x="444" d="M415 117Q415 113 412 102T398 73T372 39T329 11T268 -5V-48Q268 -58 261 -65T244 -72T227 -65T220 -48V-5Q138 4 86 64T33 222Q33 318 83 379T220 451V492Q220 502 227 509T244 516T261 509T268
492V453Q328 450 366 427T404 361Q404 331 385 315T341 298Q318 298 299 314T279 361Q279 390 299 408Q275 412 268 413V34Q339 36 368 118Q371 127 375 129T391 131Q415 131 415 117ZM220 47V406Q203 399 191 382T174 348T165 305T162 264T161 227Q161 136 180
95Q195 63 220 47Z" />
<glyph unicode="&#xa3;" glyph-name="sterling" horiz-adv-x="756" d="M704 148Q704 74 678 22T597 -31Q583 -31 568 -29T541 -24T513 -14T487 -4T460 10T436 24T410 40T385 56Q346 -11 164 -11Q118 -11 85 14T52 79Q52 125 97 146T208 168Q246 168 283 154Q281
174 275 198T265 236T250 280T236 319H120V367H221Q211 409 211 444Q211 543 276 614T436 686Q514 686 571 638T628 517Q628 491 610 473T565 454T521 472T502 517Q502 542 519 560T560 580Q518 638 436 638Q379 638 352 582T325 444Q325 405 334 367H497V319H346Q349
307 361 267T379 209T389 159T395 100Q479 57 536 57Q585 57 620 82T656 148H704ZM283 107Q244 120 208 120Q191 120 182 120T158 119T135 115T117 108T104 97T100 79Q100 59 119 48T164 37Q207 37 241 55T283 107Z" />
<glyph unicode="&#xa4;" glyph-name="currency" horiz-adv-x="778" d="M624 485Q645 464 615 434L561 380Q604 323 604 250Q604 178 561 121L615 67Q645 37 623 15Q602 -6 572 24L518 78Q461 34 389 34Q318 34 259 78L205 24Q175 -6 153 16Q132 37 162 67L216
121Q173 178 173 250T216 379L162 434Q132 464 154 486Q175 507 205 477L260 423Q317 466 389 466T518 423L572 477Q602 507 624 485ZM544 185T544 250T499 360T389 406Q324 406 279 360T233 250T278 140T389 94Q453 94 498 139Z" />
<glyph unicode="&#xa5;" glyph-name="yen" horiz-adv-x="756" d="M739 639Q698 639 678 637T652 631T642 618L487 348H604V300H460L445 274V200H604V152H445V47H540V0Q505 3 377 3Q250 3 215 0V47H309V152H151V200H309V274L294 300H151V348H267L101 639H16V686Q52
683 166 683Q297 683 333 686V639H258L424 348H426L587 629Q563 639 518 639V686L637 683L739 686V639Z" />
<glyph unicode="&#xa6;" glyph-name="brokenbar" horiz-adv-x="319" d="M190 341Q190 331 181 324T160 317T139 324T129 341V706Q129 750 160 750Q190 750 190 706V341ZM190 -206Q190 -250 159 -250Q129 -250 129 -206V159Q129 169 138 176T160 183T181 176T190
159V-206Z" />
<glyph unicode="&#xa7;" glyph-name="section" horiz-adv-x="604" d="M550 200Q550 124 465 74Q501 23 501 -32Q501 -108 442 -160T302 -212Q230 -212 179 -161T128 -37Q128 -11 146 7T191 26T235 8T254 -37Q254 -60 240 -77T204 -99Q241 -134 302 -134Q344 -134
373 -104T403 -32Q403 -11 387 7T354 34T308 57L206 102Q139 133 97 184T54 300Q54 376 139 425Q103 476 103 532Q103 608 162 660T302 712Q374 712 425 661T476 537Q476 511 458 493T413 474T369 492T350 537Q350 560 364 577T400 599Q363 634 302 634Q260 634
231 604T201 532Q201 511 217 493T250 466T296 443L398 398Q465 367 507 316T550 200ZM440 200Q440 254 351 294L249 339Q212 355 179 383Q164 356 164 300Q164 246 253 206L355 161Q391 144 425 117Q440 142 440 200Z" />
<glyph unicode="&#xa8;" glyph-name="dieresis" horiz-adv-x="500" d="M192 609Q192 581 172 560T121 539Q92 539 72 559T51 609Q51 637 71 658T122 679Q151 679 171 659T192 609ZM450 609Q450 581 430 560T379 539Q350 539 330 559T309 609Q309 637 329 658T380
679Q409 679 429 659T450 609Z" />
<glyph unicode="&#xa9;" glyph-name="copyright" horiz-adv-x="686" d="M686 343Q686 201 586 101T343 0T101 100T0 343T100 585T343 686Q486 686 586 586T686 343ZM626 226T626 343T543 543T343 626T143 543T60 343T143 143T343 60T543 143ZM475 285Q475 241
440 204T347 166Q270 166 221 213T171 343T220 472T346 520Q392 520 428 489L457 515Q462 520 466 520Q475 520 475 506V398Q475 388 473 386T462 384Q450 384 449 392Q441 444 415 470T356 496Q300 496 271 455Q247 423 247 343Q247 270 268 236Q295 190 357 190Q393
190 422 215T452 287Q452 296 463 296Q470 296 472 294T475 285Z" />
<glyph unicode="&#xaa;" glyph-name="ordfeminine" horiz-adv-x="431" d="M407 397Q407 385 402 383T381 380H345Q318 380 301 385T278 401T271 417T269 432Q238 376 165 376Q110 376 67 396T24 456Q24 508 90 536T255 566V591Q255 628 237 650T182 672Q156 672
133 668Q152 655 152 633Q152 612 136 601T99 589Q79 589 63 600T47 633Q47 697 185 697Q262 697 306 669T350 590V439Q350 430 351 426T362 418T390 413Q407 411 407 397ZM383 336T383 329T376 317T359 312H72Q62 312 55 317T48 329T55 341T72 346H359Q369 346
376 341ZM255 477V543Q241 542 224 539T181 528T139 502T122 456Q122 435 136 418T176 401Q202 401 228 419T255 477Z" />
<glyph unicode="&#xab;" glyph-name="guillemotleft" horiz-adv-x="556" d="M250 16Q251 9 247 5T236 0H228Q218 0 215 10Q174 132 88 227Q79 236 88 246Q174 339 215 463Q219 472 228 472H236Q242 472 246 468T250 456Q235 344 199 236Q235 130 250 16ZM444 16Q445
9 441 5T430 0H422Q412 0 409 10Q368 132 282 227Q273 236 282 246Q368 339 409 463Q413 472 422 472H430Q436 472 440 468T444 456Q429 344 393 236Q429 130 444 16Z" />
<glyph unicode="&#xac;" glyph-name="logicalnot" horiz-adv-x="778" d="M721 138Q721 125 713 117T691 108T670 116T661 138V333H86Q73 333 65 341T56 363T64 384T86 393H691Q704 393 712 385T721 363V138Z" />
<glyph unicode="&#xae;" glyph-name="registered" horiz-adv-x="686" d="M686 343Q686 201 586 101T343 0T101 100T0 343T100 585T343 686Q486 686 586 586T686 343ZM626 226T626 343T543 543T343 626T143 543T60 343T143 143T343 60T543 143ZM538 222Q538 215
536 205T520 182T485 169Q402 169 386 215Q383 226 383 259Q383 302 373 318Q361 337 336 337H293V198H340V175Q322 176 259 176Q195 176 178 175V198H225V494H178V517H344Q406 517 441 491T477 424Q477 397 457 375T401 344Q445 324 453 284Q453 274 458 247Q461
226 462 217T471 197T489 187Q512 187 515 222Q515 233 526 233Q538 233 538 222ZM401 424Q401 442 400 451T393 472T373 489T334 494H293V355H333Q357 355 372 360T392 377T399 398T401 424Z" />
<glyph unicode="&#xaf;" glyph-name="overscore" horiz-adv-x="500" d="M431 583H70V635H431V583Z" />
<glyph unicode="0;" glyph-name="degree" horiz-adv-x="375" d="M326 547Q326 490 286 449T188 408Q130 408 90 449T49 547Q49 605 89 645T188 686Q245 686 285 646T326 547ZM266 547Q266 580 243 603T188 626Q155 626 132 603T109 547Q109 515 132 492T188
468Q220 468 243 491T266 547Z" />
<glyph unicode="1;" glyph-name="plusminus" horiz-adv-x="778" d="M721 30Q721 0 678 0H99Q56 0 56 31Q56 61 99 61H358V302H99Q56 302 56 333Q56 363 99 363H358V623Q358 665 389 665Q419 665 419 623V363H678Q721 363 721 332Q721 302 678 302H419V61H678Q721
61 721 30Z" />
<glyph unicode="2;" glyph-name="two.superior" horiz-adv-x="359" d="M323 437L301 304H36V315Q36 328 43 335L157 454Q224 524 224 584Q224 601 220 617T200 651T155 669Q118 669 96 648Q140 641 140 605Q140 584 124 573T88 562Q70 562 53 572T36 606Q36
644 75 670T171 697Q237 697 280 665T323 584Q323 538 273 495L207 446L122 379H208Q270 379 274 384Q283 395 289 437H323Z" />
<glyph unicode="3;" glyph-name="three.superior" horiz-adv-x="359" d="M329 412Q329 363 286 331T168 298Q108 298 69 324T30 388Q30 410 46 422T86 434T125 422T140 389Q140 370 127 358T95 343Q125 323 165 323Q184 323 196 331T212 356T218 384T219 413Q219
441 217 457T200 487T159 502H140Q128 502 124 503T120 513Q120 520 124 522T143 525Q160 526 168 527T185 534T200 554Q211 579 211 616Q211 674 166 674Q129 674 104 652Q130 649 140 637T150 610Q150 593 137 581T99 569Q78 569 64 580T50 611Q50 645 83 671T170
697Q234 697 272 674T310 614T282 552T219 515Q279 503 304 474T329 412Z" />
<glyph unicode="4;" glyph-name="acute" horiz-adv-x="500" d="M379 644Q379 616 347 595L218 511L185 544L269 676Q288 706 317 706Q341 706 360 687T379 644Z" />
<glyph unicode="5;" glyph-name="mu" horiz-adv-x="556" d="M552 0Q518 -2 495 -2Q439 -2 375 -6V62H374Q337 -6 257 -6Q228 -6 207 -3V-147H276V-194Q225 -191 150 -191Q74 -191 24 -194V-147H93V354Q93 384 83 389T24 395V442L207 450V106Q207 82 208 71T215
49T234 34T270 30Q316 30 342 67T369 165V354Q369 384 359 389T300 395V442L483 450V88Q483 58 493 53T552 47V0Z" />
<glyph unicode="6;" glyph-name="paragraph" horiz-adv-x="703" d="M670 663Q670 633 625 633H574V-150Q574 -194 543 -194Q513 -194 513 -150V633H433V-150Q433 -194 402 -194Q372 -194 372 -150V220Q234 228 149 292T64 457Q64 559 149 626T351 694H625Q670
694 670 663Z" />
<glyph unicode="7;" glyph-name="middot" horiz-adv-x="778" d="M467 375T467 343T444 288T389 265T334 288T311 343T334 398T389 421T444 398Z" />
<glyph unicode="8;" glyph-name="cedilla" horiz-adv-x="444" d="M356 -116Q356 -136 348 -151T321 -175T285 -189T238 -197T189 -199T137 -200H89V-152H113Q140 -152 154 -152T189 -148T218 -137T228 -116Q228 -100 212 -91T174 -81V5H270V-33Q305 -33 330
-57T356 -116Z" />
<glyph unicode="9;" glyph-name="one.superior" horiz-adv-x="359" d="M310 304Q282 306 184 306Q87 306 60 304V332H140V641Q102 631 50 631V659Q150 659 198 697Q217 697 221 695T226 678V332H310V304Z" />
<glyph unicode="a;" glyph-name="ordmasculine" horiz-adv-x="419" d="M396 533Q396 460 345 418T209 376Q127 376 76 418T24 533Q24 608 75 652T209 697Q294 697 345 652T396 533ZM372 336T372 329T365 317T348 312H72Q62 312 55 317T48 329T55 341T72 346H348Q358
346 365 341ZM288 540Q288 606 281 629Q275 647 255 659T209 672Q185 672 165 661T139 629Q131 607 131 540T138 450Q144 428 164 416T210 404Q233 404 253 415T280 447Q288 471 288 540Z" />
<glyph unicode="b;" glyph-name="guillemotright" horiz-adv-x="556" d="M468 227Q381 132 341 10Q338 0 328 0H320Q304 0 306 16Q319 123 357 236Q319 351 306 456Q304 472 320 472H328Q337 472 341 463Q381 339 468 246Q477 236 468 227ZM274 227Q187 132
147 10Q144 0 134 0H126Q110 0 112 16Q125 123 163 236Q125 351 112 456Q110 472 126 472H134Q143 472 147 463Q187 339 274 246Q283 236 274 227Z" />
<glyph unicode="c;" glyph-name="onequarter" horiz-adv-x="855" d="M310 304Q282 306 184 306Q87 306 60 304V332H140V641Q102 631 50 631V659Q150 659 198 697Q217 697 221 695T226 678V332H310V304ZM805 0Q777 2 703 2Q616 2 590 0V28H660V94H486V122L707
385Q714 394 729 394T747 391T750 374V122H805V94H750V28H805V0ZM700 666Q700 657 696 650L296 4Q286 -10 270 -10Q258 -10 249 -2T240 20Q240 28 245 36L645 682Q654 696 670 696Q683 696 691 688T700 666ZM668 122V296L521 122H668Z" />
<glyph unicode="d;" glyph-name="onehalf" horiz-adv-x="855" d="M310 304Q282 306 184 306Q87 306 60 304V332H140V641Q102 631 50 631V659Q150 659 198 697Q217 697 221 695T226 678V332H310V304ZM805 133L783 0H518V11Q518 23 525 31L639 149Q706 220 706
280Q706 297 702 313T682 347T637 365Q600 365 577 344Q621 337 621 301Q621 280 605 269T570 257Q552 257 535 267T518 302Q518 340 556 366T652 393Q718 393 761 361T805 280Q805 234 755 191Q748 186 736 177T708 156T688 142Q604 76 603 75H690Q752 75 755
80Q765 90 771 133H805ZM657 666Q657 657 653 650L253 4Q244 -10 228 -10Q215 -10 207 -2T198 20Q198 29 202 36L602 682Q611 696 627 696Q640 696 648 688T657 666Z" />
<glyph unicode="e;" glyph-name="threequarters" horiz-adv-x="855" d="M359 412Q359 363 317 331T199 298Q139 298 100 324T60 388Q60 410 76 422T116 434T155 422T171 389Q171 370 158 358T125 343Q155 323 195 323Q214 323 226 331T242 356T248 384T249
413Q249 441 247 457T230 487T189 502H171Q150 502 150 513Q150 520 154 522T174 525Q190 526 198 527T215 534T230 554Q241 579 241 616Q241 674 196 674Q159 674 134 652Q180 647 180 610Q180 593 167 581T130 569Q109 569 95 580T80 611Q80 645 113 671T200
697Q264 697 302 674T340 614T312 552T249 515Q309 503 334 474T359 412ZM805 0Q777 2 703 2Q616 2 590 0V28H660V94H486V122L707 385Q714 394 729 394T747 391T750 374V122H805V94H750V28H805V0ZM700 666Q700 657 696 650L296 4Q286 -10 270 -10Q258 -10 249 -2T240
20Q240 28 245 36L645 682Q654 696 670 696Q683 696 691 688T700 666ZM668 122V296L521 122H668Z" />
<glyph unicode="f;" glyph-name="questiondown" horiz-adv-x="472" d="M300 454T300 422T277 367T222 344T167 367T144 422T167 477T222 500T277 477ZM415 -73Q415 -131 361 -165T221 -200Q204 -200 191 -199T151 -192T105 -173T71 -134T56 -71Q56 -10 101
26Q145 61 168 105T195 174T199 235V247Q199 260 200 264T205 271T222 274Q239 274 242 269T246 237Q246 111 198 8Q184 -23 184 -85Q184 -137 190 -150T226 -164Q290 -164 335 -133L334 -132Q332 -132 330 -131T324 -129T318 -125T312 -120T305 -114T300 -106T295
-96T291 -85T290 -72Q290 -43 308 -26T353 -9Q376 -9 395 -24T415 -73Z" />
<glyph unicode="0;" glyph-name="Agrave" horiz-adv-x="756" d="M720 0Q684 3 570 3Q443 3 407 0V47H490L443 182H224L185 71L181 59Q181 47 259 47V0L141 3L35 0V47Q73 47 93 49Q114 51 119 54T128 70L340 672Q346 690 354 694T378 698Q389 698 394 697T405
690T415 672L635 47H720V0ZM426 229L333 493L240 229H426ZM448 776L422 738L280 798Q245 814 240 841Q235 870 253 892T300 914Q323 914 343 892L448 776Z" />
<glyph unicode="1;" glyph-name="Aacute" horiz-adv-x="756" d="M720 0Q684 3 570 3Q443 3 407 0V47H490L443 182H224L185 71L181 59Q181 47 259 47V0L141 3L35 0V47Q73 47 93 49Q114 51 119 54T128 70L340 672Q346 690 354 694T378 698Q389 698 394 697T405
690T415 672L635 47H720V0ZM426 229L333 493L240 229H426ZM516 841Q511 814 476 798L334 738L308 776L413 892Q433 914 456 914Q485 914 503 892T516 841Z" />
<glyph unicode="2;" glyph-name="Acircumflex" horiz-adv-x="756" d="M720 0Q684 3 570 3Q443 3 407 0V47H490L443 182H224L185 71L181 59Q181 47 259 47V0L141 3L35 0V47Q73 47 93 49Q114 51 119 54T128 70L340 672Q346 690 354 694T378 698Q389 698 394
697T405 690T415 672L635 47H720V0ZM426 229L333 493L240 229H426ZM553 752L537 728L377 786L217 728L203 752L378 893L553 752Z" />
<glyph unicode="3;" glyph-name="Atilde" horiz-adv-x="756" d="M720 0Q684 3 570 3Q443 3 407 0V47H490L443 182H224L185 71L181 59Q181 47 259 47V0L141 3L35 0V47Q73 47 93 49Q114 51 119 54T128 70L340 672Q346 690 354 694T378 698Q389 698 394 697T405
690T415 672L635 47H720V0ZM426 229L333 493L240 229H426ZM545 812L504 759Q481 728 441 728Q423 728 376 742Q325 759 303 759Q264 759 240 728L212 750L253 803Q276 834 316 834Q334 834 381 820Q432 803 454 803Q493 803 517 834L545 812Z" />
<glyph unicode="4;" glyph-name="Adieresis" horiz-adv-x="756" d="M720 0Q684 3 570 3Q443 3 407 0V47H490L443 182H224L185 71L181 59Q181 47 259 47V0L141 3L35 0V47Q73 47 93 49Q114 51 119 54T128 70L340 672Q346 690 354 694T378 698Q389 698 394 697T405
690T415 672L635 47H720V0ZM426 229L333 493L240 229H426ZM296 798Q296 770 276 749T225 728Q196 728 176 748T155 798Q155 826 175 847T226 868Q255 868 275 848T296 798ZM602 798Q602 770 582 749T531 728Q502 728 482 748T461 798Q461 826 481 847T532 868Q561
868 581 848T602 798Z" />
<glyph unicode="5;" glyph-name="Aring" horiz-adv-x="756" d="M720 0Q684 3 570 3Q443 3 407 0V47H490L443 182H224L185 71L181 59Q181 47 259 47V0L141 3L35 0V47Q73 47 93 49Q114 51 119 54T128 70L340 672Q346 690 354 694T378 698Q389 698 394 697T405
690T415 672L635 47H720V0ZM426 229L333 493L240 229H426ZM431 782Q431 808 420 816T378 825Q347 825 336 816T325 782Q325 756 336 748T378 739Q409 739 420 748T431 782ZM485 783Q485 747 458 723T377 698Q326 698 299 722T271 783Q271 816 298 841T379 866Q431
866 458 842T485 783Z" />
<glyph unicode="6;" glyph-name="AE" horiz-adv-x="906" d="M877 274L831 0H348V47H419V306H271L186 72L182 60Q182 54 201 51T240 48L260 47V0L141 3L35 0V47Q77 47 96 49T120 56T129 70L336 639H269V686H818L849 445H802Q798 476 796 491T788 531T775 568T756
597T727 620T686 633T632 639H551V353H582Q616 353 636 360T665 384T676 419T679 470H726V189H679Q679 254 663 280T582 306H551V47H637Q662 47 683 51T721 60T750 77T773 98T791 126T804 157T814 193T822 231T830 274H877ZM419 353V639H393L288 353H419Z" />
<glyph unicode="7;" glyph-name="Ccedilla" horiz-adv-x="722" d="M665 227Q665 147 605 76T445 -9V-33Q480 -33 505 -57T531 -116Q531 -136 523 -151T496 -175T460 -189T413 -197T364 -199T312 -200H264V-152H288Q315 -152 329 -152T364 -148T393 -137T403
-116Q403 -100 387 -91T349 -81V-7Q217 11 137 103T56 343Q56 508 155 602T407 697Q499 697 570 635L628 688Q638 697 647 697Q659 697 662 692T665 669V454Q665 434 661 430T638 426Q628 426 624 426T617 430T612 442Q597 545 545 597T426 650Q315 650 256 568Q234
538 223 493T211 418T209 343Q209 267 217 218T250 128Q277 84 325 60T428 36Q501 36 559 87T618 231Q619 243 624 245T641 248Q655 248 660 245T665 227Z" />
<glyph unicode="8;" glyph-name="Egrave" horiz-adv-x="656" d="M627 274L581 0H34V47H128V633H34V680H568L599 439H552Q546 481 542 503T526 554T496 598T446 622T369 633H270V376H292Q354 376 370 402T387 493H434V212H387Q387 245 385 262T374 297T345
322T292 329H270V47H373Q414 47 444 54T496 77T530 111T554 158T569 211T580 274H627ZM398 776L372 738L230 798Q195 814 190 841Q185 870 203 892T250 914Q273 914 293 892L398 776Z" />
<glyph unicode="9;" glyph-name="Eacute" horiz-adv-x="656" d="M627 274L581 0H34V47H128V633H34V680H568L599 439H552Q546 481 542 503T526 554T496 598T446 622T369 633H270V376H292Q354 376 370 402T387 493H434V212H387Q387 245 385 262T374 297T345
322T292 329H270V47H373Q414 47 444 54T496 77T530 111T554 158T569 211T580 274H627ZM466 841Q461 814 426 798L284 738L258 776L363 892Q383 914 406 914Q435 914 453 892T466 841Z" />
<glyph unicode="a;" glyph-name="Ecircumflex" horiz-adv-x="656" d="M627 274L581 0H34V47H128V633H34V680H568L599 439H552Q546 481 542 503T526 554T496 598T446 622T369 633H270V376H292Q354 376 370 402T387 493H434V212H387Q387 245 385 262T374 297T345
322T292 329H270V47H373Q414 47 444 54T496 77T530 111T554 158T569 211T580 274H627ZM503 752L487 728L327 786L167 728L153 752L328 893L503 752Z" />
<glyph unicode="b;" glyph-name="Edieresis" horiz-adv-x="656" d="M627 274L581 0H34V47H128V633H34V680H568L599 439H552Q546 481 542 503T526 554T496 598T446 622T369 633H270V376H292Q354 376 370 402T387 493H434V212H387Q387 245 385 262T374 297T345
322T292 329H270V47H373Q414 47 444 54T496 77T530 111T554 158T569 211T580 274H627ZM246 798Q246 770 226 749T175 728Q146 728 126 748T105 798Q105 826 125 847T176 868Q205 868 225 848T246 798ZM552 798Q552 770 532 749T481 728Q452 728 432 748T411 798Q411
826 431 847T482 868Q511 868 531 848T552 798Z" />
<glyph unicode="c;" glyph-name="Igrave" horiz-adv-x="397" d="M368 0Q332 3 198 3T28 0V47H127V639H28V686Q64 683 198 683T368 686V639H269V47H368V0ZM269 776L243 738L101 798Q66 814 61 841Q56 870 74 892T121 914Q144 914 164 892L269 776Z" />
<glyph unicode="d;" glyph-name="Iacute" horiz-adv-x="397" d="M368 0Q332 3 198 3T28 0V47H127V639H28V686Q64 683 198 683T368 686V639H269V47H368V0ZM337 841Q332 814 297 798L155 738L129 776L234 892Q254 914 277 914Q306 914 324 892T337 841Z" />
<glyph unicode="e;" glyph-name="Icircumflex" horiz-adv-x="397" d="M368 0Q332 3 198 3T28 0V47H127V639H28V686Q64 683 198 683T368 686V639H269V47H368V0ZM374 752L358 728L198 786L38 728L24 752L199 893L374 752Z" />
<glyph unicode="f;" glyph-name="Idieresis" horiz-adv-x="397" d="M368 0Q332 3 198 3T28 0V47H127V639H28V686Q64 683 198 683T368 686V639H269V47H368V0ZM117 798Q117 770 97 749T46 728Q17 728 -3 748T-24 798Q-24 826 -4 847T47 868Q76 868 96 848T117
798ZM423 798Q423 770 403 749T352 728Q323 728 303 748T282 798Q282 826 302 847T353 868Q382 868 402 848T423 798Z" />
<glyph unicode="&#xd0;" glyph-name="Eth" horiz-adv-x="767" d="M710 337Q710 177 624 89T406 0H34V47H128V319H34V367H128V639H34V686H406Q536 686 623 595T710 337ZM563 337Q563 492 531 549Q482 639 364 639H264V367H383V319H264V47H365Q482 47 531 132Q563
191 563 337Z" />
<glyph unicode="&#xd1;" glyph-name="Ntilde" horiz-adv-x="783" d="M748 639H728Q700 639 678 636Q660 634 657 631T654 610V32Q654 12 650 6T627 0Q609 0 600 13L181 589V76Q181 59 184 56T206 50Q227 47 255 47H275V0L154 3L34 0V47H54Q82 47 104 50Q122 52
125 55T128 76V639H34V686H242Q258 686 263 684T277 671L601 225V610Q601 627 598 630T576 636Q555 639 527 639H507V686L628 683L748 686V639ZM559 812L518 759Q495 728 455 728Q437 728 390 742Q339 759 317 759Q278 759 254 728L226 750L267 803Q290 834 330
834Q348 834 395 820Q446 803 468 803Q507 803 531 834L559 812Z" />
<glyph unicode="&#xd2;" glyph-name="Ograve" horiz-adv-x="750" d="M693 339Q693 175 604 82T374 -11Q237 -11 147 81T56 339Q56 507 145 602T375 697Q512 697 602 603T693 339ZM540 353Q540 488 513 553Q492 603 455 630T374 657Q335 657 298 633T237 557Q209
492 209 353Q209 202 241 130Q261 85 296 58T375 31Q417 31 454 59T510 134Q530 183 535 231T540 353ZM445 776L419 738L277 798Q242 814 237 841Q232 870 250 892T297 914Q320 914 340 892L445 776Z" />
<glyph unicode="&#xd3;" glyph-name="Oacute" horiz-adv-x="750" d="M693 339Q693 175 604 82T374 -11Q237 -11 147 81T56 339Q56 507 145 602T375 697Q512 697 602 603T693 339ZM540 353Q540 488 513 553Q492 603 455 630T374 657Q335 657 298 633T237 557Q209
492 209 353Q209 202 241 130Q261 85 296 58T375 31Q417 31 454 59T510 134Q530 183 535 231T540 353ZM513 841Q508 814 473 798L331 738L305 776L410 892Q430 914 453 914Q482 914 500 892T513 841Z" />
<glyph unicode="&#xd4;" glyph-name="Ocircumflex" horiz-adv-x="750" d="M693 339Q693 175 604 82T374 -11Q237 -11 147 81T56 339Q56 507 145 602T375 697Q512 697 602 603T693 339ZM540 353Q540 488 513 553Q492 603 455 630T374 657Q335 657 298 633T237 557Q209
492 209 353Q209 202 241 130Q261 85 296 58T375 31Q417 31 454 59T510 134Q530 183 535 231T540 353ZM550 752L534 728L374 786L214 728L200 752L375 893L550 752Z" />
<glyph unicode="&#xd5;" glyph-name="Otilde" horiz-adv-x="750" d="M693 339Q693 175 604 82T374 -11Q237 -11 147 81T56 339Q56 507 145 602T375 697Q512 697 602 603T693 339ZM540 353Q540 488 513 553Q492 603 455 630T374 657Q335 657 298 633T237 557Q209
492 209 353Q209 202 241 130Q261 85 296 58T375 31Q417 31 454 59T510 134Q530 183 535 231T540 353ZM542 812L501 759Q478 728 438 728Q420 728 373 742Q322 759 300 759Q261 759 237 728L209 750L250 803Q273 834 313 834Q331 834 378 820Q429 803 451 803Q490
803 514 834L542 812Z" />
<glyph unicode="&#xd6;" glyph-name="Odieresis" horiz-adv-x="750" d="M693 339Q693 175 604 82T374 -11Q237 -11 147 81T56 339Q56 507 145 602T375 697Q512 697 602 603T693 339ZM540 353Q540 488 513 553Q492 603 455 630T374 657Q335 657 298 633T237 557Q209
492 209 353Q209 202 241 130Q261 85 296 58T375 31Q417 31 454 59T510 134Q530 183 535 231T540 353ZM293 798Q293 770 273 749T222 728Q193 728 173 748T152 798Q152 826 172 847T223 868Q252 868 272 848T293 798ZM599 798Q599 770 579 749T528 728Q499 728
479 748T458 798Q458 826 478 847T529 868Q558 868 578 848T599 798Z" />
<glyph unicode="&#xd7;" glyph-name="multiply" horiz-adv-x="778" d="M624 485Q645 464 615 434L432 251L615 67Q645 37 623 15Q602 -6 572 24L389 207L205 24Q175 -6 153 16Q132 37 162 67L345 251L162 434Q132 464 154 486Q175 507 205 477L389 294L572 477Q602
507 624 485Z" />
<glyph unicode="&#xd8;" glyph-name="Oslash" horiz-adv-x="778" d="M721 340Q721 174 628 82T389 -11Q300 -11 228 25L180 -59L146 -39L194 45Q140 78 98 151T56 340Q56 503 148 600T389 697Q472 697 549 661L597 745L631 725L583 640Q653 592 687 513T721 340ZM517
607Q467 661 388 661Q345 661 300 638T227 558Q198 496 198 340Q198 288 199 259T208 186T233 114L517 607ZM579 288T579 340T578 422T569 496T543 571L259 78Q314 25 389 25Q430 25 473 45T544 113Q560 142 568 185T578 258Z" />
<glyph unicode="&#xd9;" glyph-name="Ugrave" horiz-adv-x="769" d="M734 639H714Q686 639 664 636Q646 634 643 631T640 610V227Q640 124 578 57T404 -11Q277 -11 203 56T128 229V639H34V686Q69 683 199 683T364 686V639H270V210Q270 36 408 36Q481 36 534 81T587
230V610Q587 627 584 630T562 636Q541 639 513 639H493V686L614 683L734 686V639ZM478 776L452 738L310 798Q275 814 270 841Q265 870 283 892T330 914Q353 914 373 892L478 776Z" />
<glyph unicode="&#xda;" glyph-name="Uacute" horiz-adv-x="769" d="M734 639H714Q686 639 664 636Q646 634 643 631T640 610V227Q640 124 578 57T404 -11Q277 -11 203 56T128 229V639H34V686Q69 683 199 683T364 686V639H270V210Q270 36 408 36Q481 36 534 81T587
230V610Q587 627 584 630T562 636Q541 639 513 639H493V686L614 683L734 686V639ZM546 841Q541 814 506 798L364 738L338 776L443 892Q463 914 486 914Q515 914 533 892T546 841Z" />
<glyph unicode="&#xdb;" glyph-name="Ucircumflex" horiz-adv-x="769" d="M734 639H714Q686 639 664 636Q646 634 643 631T640 610V227Q640 124 578 57T404 -11Q277 -11 203 56T128 229V639H34V686Q69 683 199 683T364 686V639H270V210Q270 36 408 36Q481 36 534
81T587 230V610Q587 627 584 630T562 636Q541 639 513 639H493V686L614 683L734 686V639ZM583 752L567 728L407 786L247 728L233 752L408 893L583 752Z" />
<glyph unicode="&#xdc;" glyph-name="Udieresis" horiz-adv-x="769" d="M734 639H714Q686 639 664 636Q646 634 643 631T640 610V227Q640 124 578 57T404 -11Q277 -11 203 56T128 229V639H34V686Q69 683 199 683T364 686V639H270V210Q270 36 408 36Q481 36 534
81T587 230V610Q587 627 584 630T562 636Q541 639 513 639H493V686L614 683L734 686V639ZM326 798Q326 770 306 749T255 728Q226 728 206 748T185 798Q185 826 205 847T256 868Q285 868 305 848T326 798ZM632 798Q632 770 612 749T561 728Q532 728 512 748T491
798Q491 826 511 847T562 868Q591 868 611 848T632 798Z" />
<glyph unicode="&#xdd;" glyph-name="Yacute" horiz-adv-x="756" d="M739 639Q698 639 678 637T652 631T642 618L445 274V47H540V0Q505 3 377 3Q250 3 215 0V47H309V274L101 639H16V686Q52 683 166 683Q297 683 333 686V639H258L425 346L587 629Q563 639 518 639V686L637
683L739 686V639ZM516 841Q511 814 476 798L334 738L308 776L413 892Q433 914 456 914Q485 914 503 892T516 841Z" />
<glyph unicode="&#xde;" glyph-name="Thorn" horiz-adv-x="683" d="M626 340Q626 253 562 202T402 151H269V47H368V0Q332 3 198 3T28 0V47H127V639H28V686Q64 683 198 683T368 686V639H269V535H393Q501 535 563 480T626 340ZM473 343Q473 377 472 393T465 432T447
465T411 483T352 491H264V195H352Q387 195 411 203T447 221T465 255T472 294T473 343Z" />
<glyph unicode="&#xdf;" glyph-name="germandbls" horiz-adv-x="560" d="M531 180Q531 91 472 43T326 -6Q278 -6 250 20T222 80Q222 107 238 119T272 131Q292 131 307 117T322 81Q322 50 296 37Q307 30 323 30Q413 30 413 179Q413 397 267 408Q263 408 263 408T259
409T255 411T252 414T250 419T249 426Q249 434 252 438T259 442T271 444Q385 451 385 563Q385 664 291 664Q193 664 193 559V0Q152 3 128 3L16 0V47H85V397H16V444H85V556Q85 626 141 663T292 700Q398 700 450 660T503 562Q503 513 469 478T379 422Q449 395 490
330T531 180Z" />
<glyph unicode="&#xe0;" glyph-name="agrave" horiz-adv-x="486" d="M485 24Q485 13 481 8T471 1T453 0H411Q379 0 359 8T331 30T322 53T320 74Q283 -6 197 -6Q132 -6 80 23T28 109Q28 183 107 223T303 265V301Q303 354 282 385T217 417Q190 417 158 411Q181 393
181 361Q181 331 162 315T118 298Q95 298 76 314T56 361Q56 386 70 405T103 432T148 446T189 452T220 453Q312 453 364 412T417 300V84Q417 71 418 65T431 54T464 47Q471 46 474 45T481 39T485 24ZM303 138V233Q289 232 276 230T237 220T193 200T160 164T145 109T162
54T209 30Q240 30 271 55T303 138ZM308 544L275 511L146 595Q114 616 114 644Q114 668 133 687T176 706Q205 706 224 676L308 544Z" />
<glyph unicode="&#xe1;" glyph-name="aacute" horiz-adv-x="486" d="M485 24Q485 13 481 8T471 1T453 0H411Q379 0 359 8T331 30T322 53T320 74Q283 -6 197 -6Q132 -6 80 23T28 109Q28 183 107 223T303 265V301Q303 354 282 385T217 417Q190 417 158 411Q181 393
181 361Q181 331 162 315T118 298Q95 298 76 314T56 361Q56 386 70 405T103 432T148 446T189 452T220 453Q312 453 364 412T417 300V84Q417 71 418 65T431 54T464 47Q471 46 474 45T481 39T485 24ZM303 138V233Q289 232 276 230T237 220T193 200T160 164T145 109T162
54T209 30Q240 30 271 55T303 138ZM372 644Q372 616 340 595L211 511L178 544L262 676Q281 706 310 706Q334 706 353 687T372 644Z" />
<glyph unicode="&#xe2;" glyph-name="acircumflex" horiz-adv-x="486" d="M485 24Q485 13 481 8T471 1T453 0H411Q379 0 359 8T331 30T322 53T320 74Q283 -6 197 -6Q132 -6 80 23T28 109Q28 183 107 223T303 265V301Q303 354 282 385T217 417Q190 417 158 411Q181
393 181 361Q181 331 162 315T118 298Q95 298 76 314T56 361Q56 386 70 405T103 432T148 446T189 452T220 453Q312 453 364 412T417 300V84Q417 71 418 65T431 54T464 47Q471 46 474 45T481 39T485 24ZM303 138V233Q289 232 276 230T237 220T193 200T160 164T145
109T162 54T209 30Q240 30 271 55T303 138ZM420 527L400 505L242 604L84 505L66 527L243 712L420 527Z" />
<glyph unicode="&#xe3;" glyph-name="atilde" horiz-adv-x="486" d="M485 24Q485 13 481 8T471 1T453 0H411Q379 0 359 8T331 30T322 53T320 74Q283 -6 197 -6Q132 -6 80 23T28 109Q28 183 107 223T303 265V301Q303 354 282 385T217 417Q190 417 158 411Q181 393
181 361Q181 331 162 315T118 298Q95 298 76 314T56 361Q56 386 70 405T103 432T148 446T189 452T220 453Q312 453 364 412T417 300V84Q417 71 418 65T431 54T464 47Q471 46 474 45T481 39T485 24ZM303 138V233Q289 232 276 230T237 220T193 200T160 164T145 109T162
54T209 30Q240 30 271 55T303 138ZM410 640L369 587Q346 556 306 556Q288 556 241 570Q190 587 168 587Q129 587 105 556L77 578L118 631Q141 662 181 662Q199 662 246 648Q297 631 319 631Q358 631 382 662L410 640Z" />
<glyph unicode="&#xe4;" glyph-name="adieresis" horiz-adv-x="486" d="M485 24Q485 13 481 8T471 1T453 0H411Q379 0 359 8T331 30T322 53T320 74Q283 -6 197 -6Q132 -6 80 23T28 109Q28 183 107 223T303 265V301Q303 354 282 385T217 417Q190 417 158 411Q181
393 181 361Q181 331 162 315T118 298Q95 298 76 314T56 361Q56 386 70 405T103 432T148 446T189 452T220 453Q312 453 364 412T417 300V84Q417 71 418 65T431 54T464 47Q471 46 474 45T481 39T485 24ZM303 138V233Q289 232 276 230T237 220T193 200T160 164T145
109T162 54T209 30Q240 30 271 55T303 138ZM185 609Q185 581 165 560T114 539Q85 539 65 559T44 609Q44 637 64 658T115 679Q144 679 164 659T185 609ZM443 609Q443 581 423 560T372 539Q343 539 323 559T302 609Q302 637 322 658T373 679Q402 679 422 659T443
609Z" />
<glyph unicode="&#xe5;" glyph-name="aring" horiz-adv-x="486" d="M485 24Q485 13 481 8T471 1T453 0H411Q379 0 359 8T331 30T322 53T320 74Q283 -6 197 -6Q132 -6 80 23T28 109Q28 183 107 223T303 265V301Q303 354 282 385T217 417Q190 417 158 411Q181 393
181 361Q181 331 162 315T118 298Q95 298 76 314T56 361Q56 386 70 405T103 432T148 446T189 452T220 453Q312 453 364 412T417 300V84Q417 71 418 65T431 54T464 47Q471 46 474 45T481 39T485 24ZM303 138V233Q289 232 276 230T237 220T193 200T160 164T145 109T162
54T209 30Q240 30 271 55T303 138ZM296 605Q296 631 285 639T243 648Q212 648 201 639T190 605Q190 579 201 571T243 562Q274 562 285 571T296 605ZM350 606Q350 570 323 546T242 521Q191 521 164 545T136 606Q136 639 163 664T244 689Q296 689 323 665T350 606Z"
/>
<glyph unicode="&#xe6;" glyph-name="ae" horiz-adv-x="722" d="M693 117Q693 107 684 89T657 48T605 10T529 -6Q434 -6 369 54Q308 -6 200 -6Q127 -6 78 22T28 103Q28 235 304 248V301Q304 417 217 417Q190 417 158 411Q181 393 181 361Q181 331 162 315T118
298Q95 298 76 314T56 361Q56 386 70 405T103 432T149 446T190 452T221 453Q323 453 376 403Q433 453 517 453Q603 453 648 397T693 247Q693 227 687 223T661 218H418Q418 133 441 92Q473 34 537 34Q567 34 598 53T645 116Q647 122 648 124T651 130T658 134T669
135Q693 135 693 117ZM598 251Q594 417 517 417Q463 417 436 360Q420 325 418 251H598ZM323 121Q323 125 320 130Q306 169 304 214Q285 213 266 209T215 195T165 161T145 103Q145 75 162 53T210 30Q258 30 290 60T323 121Z" />
<glyph unicode="&#xe7;" glyph-name="ccedilla" horiz-adv-x="444" d="M415 117Q415 111 409 97T391 62T353 24T292 -2V-33Q327 -33 352 -57T378 -116Q378 -136 370 -151T343 -175T307 -189T260 -197T211 -199T159 -200H111V-152H135Q162 -152 176 -152T211 -148T240
-137T250 -116Q250 -100 234 -91T196 -81V-1Q123 15 78 73T33 222Q33 327 92 390T251 453Q316 453 360 430T404 361Q404 331 385 315T341 298Q318 298 299 314T279 361Q279 390 299 408Q272 413 254 413Q232 413 215 404T189 378T173 344T165 303T162 263T161 227Q161
136 180 95Q208 34 265 34Q339 34 368 118Q371 127 375 129T391 131Q415 131 415 117Z" />
<glyph unicode="&#xe8;" glyph-name="egrave" horiz-adv-x="467" d="M438 117Q438 107 429 89T400 48T343 10T259 -6Q158 -6 93 56T28 225Q28 329 88 391T247 453Q302 453 341 434T401 383T429 318T438 247Q438 227 432 223T406 218H156Q156 197 156 184T160 145T170
104T189 70T221 43T268 34Q303 34 338 54T390 116Q394 128 398 131T414 135Q438 135 438 117ZM343 251Q343 270 341 288T332 341T303 396T248 417Q159 417 156 251H343ZM298 544L265 511L136 595Q104 616 104 644Q104 668 123 687T166 706Q195 706 214 676L298
544Z" />
<glyph unicode="&#xe9;" glyph-name="eacute" horiz-adv-x="467" d="M438 117Q438 107 429 89T400 48T343 10T259 -6Q158 -6 93 56T28 225Q28 329 88 391T247 453Q302 453 341 434T401 383T429 318T438 247Q438 227 432 223T406 218H156Q156 197 156 184T160 145T170
104T189 70T221 43T268 34Q303 34 338 54T390 116Q394 128 398 131T414 135Q438 135 438 117ZM343 251Q343 270 341 288T332 341T303 396T248 417Q159 417 156 251H343ZM362 644Q362 616 330 595L201 511L168 544L252 676Q271 706 300 706Q324 706 343 687T362
644Z" />
<glyph unicode="&#xea;" glyph-name="ecircumflex" horiz-adv-x="467" d="M438 117Q438 107 429 89T400 48T343 10T259 -6Q158 -6 93 56T28 225Q28 329 88 391T247 453Q302 453 341 434T401 383T429 318T438 247Q438 227 432 223T406 218H156Q156 197 156 184T160
145T170 104T189 70T221 43T268 34Q303 34 338 54T390 116Q394 128 398 131T414 135Q438 135 438 117ZM343 251Q343 270 341 288T332 341T303 396T248 417Q159 417 156 251H343ZM410 527L390 505L232 604L74 505L56 527L233 712L410 527Z" />
<glyph unicode="&#xeb;" glyph-name="edieresis" horiz-adv-x="467" d="M438 117Q438 107 429 89T400 48T343 10T259 -6Q158 -6 93 56T28 225Q28 329 88 391T247 453Q302 453 341 434T401 383T429 318T438 247Q438 227 432 223T406 218H156Q156 197 156 184T160
145T170 104T189 70T221 43T268 34Q303 34 338 54T390 116Q394 128 398 131T414 135Q438 135 438 117ZM343 251Q343 270 341 288T332 341T303 396T248 417Q159 417 156 251H343ZM175 609Q175 581 155 560T104 539Q75 539 55 559T34 609Q34 637 54 658T105 679Q134
679 154 659T175 609ZM433 609Q433 581 413 560T362 539Q333 539 313 559T292 609Q292 637 312 658T363 679Q392 679 412 659T433 609Z" />
<glyph unicode="&#xec;" glyph-name="igrave" horiz-adv-x="278" d="M265 0L148 3L26 0V47H95V356Q95 384 85 389T29 395V442L203 450V47H265V0ZM204 544L171 511L42 595Q10 616 10 644Q10 668 29 687T72 706Q101 706 120 676L204 544Z" />
<glyph unicode="&#xed;" glyph-name="iacute" horiz-adv-x="278" d="M265 0L148 3L26 0V47H95V356Q95 384 85 389T29 395V442L203 450V47H265V0ZM268 644Q268 616 236 595L107 511L74 544L158 676Q177 706 206 706Q230 706 249 687T268 644Z" />
<glyph unicode="&#xee;" glyph-name="icircumflex" horiz-adv-x="278" d="M265 0L148 3L26 0V47H95V356Q95 384 85 389T29 395V442L203 450V47H265V0ZM316 527L296 505L138 604L-20 505L-38 527L139 712L316 527Z" />
<glyph unicode="&#xef;" glyph-name="idieresis" horiz-adv-x="278" d="M265 0L148 3L26 0V47H95V356Q95 384 85 389T29 395V442L203 450V47H265V0ZM81 609Q81 581 61 560T10 539Q-19 539 -39 559T-60 609Q-60 637 -40 658T11 679Q40 679 60 659T81 609ZM339 609Q339
581 319 560T268 539Q239 539 219 559T198 609Q198 637 218 658T269 679Q298 679 318 659T339 609Z" />
<glyph unicode="&#xf0;" glyph-name="eth" horiz-adv-x="500" d="M471 219Q471 115 410 54Q350 -6 249 -6Q151 -6 90 54T28 219Q28 326 89 389T249 453Q306 453 351 432Q342 521 323 569L274 531L244 568L299 612Q270 649 225 649V697Q299 697 350 652L416 704L446
667L382 617Q471 498 471 219ZM343 229Q343 323 334 356Q327 381 304 399T249 417Q220 417 196 401T165 356Q156 324 156 229Q156 133 164 100Q172 69 196 52T250 34Q278 34 302 51T333 96Q343 130 343 229Z" />
<glyph unicode="&#xf1;" glyph-name="ntilde" horiz-adv-x="556" d="M553 0L428 3L305 0V47H370V321Q370 362 364 384T351 410T334 414Q289 414 248 373T207 256V47H276V0L150 3L24 0V47H93V356Q93 384 83 389T24 395V442L196 450V349H197Q246 450 349 450Q426
450 455 412T484 309V47H553V0ZM445 640L404 587Q381 556 341 556Q323 556 276 570Q225 587 203 587Q164 587 140 556L112 578L153 631Q176 662 216 662Q234 662 281 648Q332 631 354 631Q393 631 417 662L445 640Z" />
<glyph unicode="&#xf2;" glyph-name="ograve" horiz-adv-x="500" d="M471 219Q471 115 410 55T249 -6Q151 -6 90 54T28 219Q28 326 89 389T249 453Q349 453 410 389T471 219ZM343 229Q343 323 334 356Q327 381 304 399T249 417Q220 417 196 401T165 356Q156 324
156 229Q156 133 164 100Q172 69 196 52T250 34Q278 34 302 51T333 96Q343 130 343 229ZM315 544L282 511L153 595Q121 616 121 644Q121 668 140 687T183 706Q212 706 231 676L315 544Z" />
<glyph unicode="&#xf3;" glyph-name="oacute" horiz-adv-x="500" d="M471 219Q471 115 410 55T249 -6Q151 -6 90 54T28 219Q28 326 89 389T249 453Q349 453 410 389T471 219ZM343 229Q343 323 334 356Q327 381 304 399T249 417Q220 417 196 401T165 356Q156 324
156 229Q156 133 164 100Q172 69 196 52T250 34Q278 34 302 51T333 96Q343 130 343 229ZM379 644Q379 616 347 595L218 511L185 544L269 676Q288 706 317 706Q341 706 360 687T379 644Z" />
<glyph unicode="&#xf4;" glyph-name="ocircumflex" horiz-adv-x="500" d="M471 219Q471 115 410 55T249 -6Q151 -6 90 54T28 219Q28 326 89 389T249 453Q349 453 410 389T471 219ZM343 229Q343 323 334 356Q327 381 304 399T249 417Q220 417 196 401T165 356Q156
324 156 229Q156 133 164 100Q172 69 196 52T250 34Q278 34 302 51T333 96Q343 130 343 229ZM427 527L407 505L249 604L91 505L73 527L250 712L427 527Z" />
<glyph unicode="&#xf5;" glyph-name="otilde" horiz-adv-x="500" d="M471 219Q471 115 410 55T249 -6Q151 -6 90 54T28 219Q28 326 89 389T249 453Q349 453 410 389T471 219ZM343 229Q343 323 334 356Q327 381 304 399T249 417Q220 417 196 401T165 356Q156 324
156 229Q156 133 164 100Q172 69 196 52T250 34Q278 34 302 51T333 96Q343 130 343 229ZM417 640L376 587Q353 556 313 556Q295 556 248 570Q197 587 175 587Q136 587 112 556L84 578L125 631Q148 662 188 662Q206 662 253 648Q304 631 326 631Q365 631 389 662L417
640Z" />
<glyph unicode="&#xf6;" glyph-name="odieresis" horiz-adv-x="500" d="M471 219Q471 115 410 55T249 -6Q151 -6 90 54T28 219Q28 326 89 389T249 453Q349 453 410 389T471 219ZM343 229Q343 323 334 356Q327 381 304 399T249 417Q220 417 196 401T165 356Q156
324 156 229Q156 133 164 100Q172 69 196 52T250 34Q278 34 302 51T333 96Q343 130 343 229ZM192 609Q192 581 172 560T121 539Q92 539 72 559T51 609Q51 637 71 658T122 679Q151 679 171 659T192 609ZM450 609Q450 581 430 560T379 539Q350 539 330 559T309 609Q309
637 329 658T380 679Q409 679 429 659T450 609Z" />
<glyph unicode="&#xf7;" glyph-name="divide" horiz-adv-x="778" d="M721 250Q721 220 680 220H97Q56 220 56 250Q56 281 102 281H675Q721 281 721 250ZM467 536T467 504T444 449T389 426T334 449T311 504T334 559T389 582T444 559ZM467 30T467 -2T444 -57T389
-80T334 -57T311 -2T334 53T389 76T444 53Z" />
<glyph unicode="&#xf8;" glyph-name="oslash" horiz-adv-x="500" d="M471 219Q471 115 410 55T249 -6Q202 -6 160 9L101 -105L69 -89L127 25Q28 85 28 219Q28 325 88 389T250 453Q298 453 340 437L398 550L430 534L372 420Q419 391 445 338T471 219ZM317 393Q289
417 250 417Q219 417 192 400T154 350Q142 314 142 219Q142 120 158 85L317 393ZM357 219Q357 322 341 360L183 53Q210 30 250 30Q314 30 340 83Q357 117 357 219Z" />
<glyph unicode="&#xf9;" glyph-name="ugrave" horiz-adv-x="556" d="M553 0L376 -6V62H375Q337 -6 257 -6Q178 -6 136 22T93 122V356Q93 384 83 389T24 395V442L207 450V105Q207 60 217 45T271 30Q317 30 343 68T370 163V356Q370 384 360 389T301 395V442L484
450V86Q484 58 494 53T553 47V0ZM343 544L310 511L181 595Q149 616 149 644Q149 668 168 687T211 706Q240 706 259 676L343 544Z" />
<glyph unicode="&#xfa;" glyph-name="uacute" horiz-adv-x="556" d="M553 0L376 -6V62H375Q337 -6 257 -6Q178 -6 136 22T93 122V356Q93 384 83 389T24 395V442L207 450V105Q207 60 217 45T271 30Q317 30 343 68T370 163V356Q370 384 360 389T301 395V442L484
450V86Q484 58 494 53T553 47V0ZM407 644Q407 616 375 595L246 511L213 544L297 676Q316 706 345 706Q369 706 388 687T407 644Z" />
<glyph unicode="&#xfb;" glyph-name="ucircumflex" horiz-adv-x="556" d="M553 0L376 -6V62H375Q337 -6 257 -6Q178 -6 136 22T93 122V356Q93 384 83 389T24 395V442L207 450V105Q207 60 217 45T271 30Q317 30 343 68T370 163V356Q370 384 360 389T301 395V442L484
450V86Q484 58 494 53T553 47V0ZM455 527L435 505L277 604L119 505L101 527L278 712L455 527Z" />
<glyph unicode="&#xfc;" glyph-name="udieresis" horiz-adv-x="556" d="M553 0L376 -6V62H375Q337 -6 257 -6Q178 -6 136 22T93 122V356Q93 384 83 389T24 395V442L207 450V105Q207 60 217 45T271 30Q317 30 343 68T370 163V356Q370 384 360 389T301 395V442L484
450V86Q484 58 494 53T553 47V0ZM220 609Q220 581 200 560T149 539Q120 539 100 559T79 609Q79 637 99 658T150 679Q179 679 199 659T220 609ZM478 609Q478 581 458 560T407 539Q378 539 358 559T337 609Q337 637 357 658T408 679Q437 679 457 659T478 609Z" />
<glyph unicode="&#xfd;" glyph-name="yacute" horiz-adv-x="528" d="M505 397Q474 397 460 394T441 387T433 373L256 -84Q239 -128 201 -164T112 -200Q72 -200 46 -173T19 -108Q19 -80 36 -65T76 -50Q101 -50 117 -66T134 -107Q134 -147 97 -162Q105 -164 113
-164Q161 -164 194 -108Q207 -85 238 0L84 397H22V444L134 441L257 444V397H201L297 150L382 372L387 385Q387 390 374 393T348 396L335 397V444Q374 441 426 441Q467 441 505 444V397ZM393 644Q393 616 361 595L232 511L199 544L283 676Q302 706 331 706Q355 706
374 687T393 644Z" />
<glyph unicode="&#xfe;" glyph-name="thorn" horiz-adv-x="556" d="M522 223Q522 115 459 55T302 -6Q244 -6 199 30V-147H268V-194L142 -191L16 -194V-147H85V600Q85 628 75 633T16 639V686L193 694V407Q248 450 317 450Q405 450 463 390T522 223ZM394 223Q394
319 382 352Q373 381 352 397T304 414Q243 414 199 357V89Q238 30 294 30Q321 30 344 46T379 88Q394 126 394 223Z" />
<glyph unicode="&#xff;" glyph-name="ydieresis" horiz-adv-x="528" d="M505 397Q474 397 460 394T441 387T433 373L256 -84Q239 -128 201 -164T112 -200Q72 -200 46 -173T19 -108Q19 -80 36 -65T76 -50Q101 -50 117 -66T134 -107Q134 -147 97 -162Q105 -164 113
-164Q161 -164 194 -108Q207 -85 238 0L84 397H22V444L134 441L257 444V397H201L297 150L382 372L387 385Q387 390 374 393T348 396L335 397V444Q374 441 426 441Q467 441 505 444V397ZM206 609Q206 581 186 560T135 539Q106 539 86 559T65 609Q65 637 85 658T136
679Q165 679 185 659T206 609ZM464 609Q464 581 444 560T393 539Q364 539 344 559T323 609Q323 637 343 658T394 679Q423 679 443 659T464 609Z" />
</font>
</defs>
</svg>
